<?xml version="1.0" encoding="utf-8"?>
<!-- Generator: Adobe Illustrator 18.0.0, SVG Export Plug-In . SVG Version: 6.00 Build 0)  -->
<!DOCTYPE svg PUBLIC "-//W3C//DTD SVG 1.1//EN" "http://www.w3.org/Graphics/SVG/1.1/DTD/svg11.dtd">
<svg version="1.1" id="logo" xmlns="http://www.w3.org/2000/svg" xmlns:xlink="http://www.w3.org/1999/xlink" x="0px" y="0px"
	 viewBox="0 0 3505 691.4" enable-background="new 0 0 3505 691.4" xml:space="preserve">
<g>
	<path d="M1074.3,61.7l56.4,223.7l56.4-223.7h87.7l-100.3,325.5l-2.3,7v241.3h-82.8V394.2l-2.6-7L986.6,61.7H1074.3z"/>
	<path d="M1533.3,537.2c0,70.8-39.7,106.2-119,106.2c-79.2,0-118.7-35.4-118.7-106.2V228.1c0-71,39.6-106.4,118.7-106.4
		c79.3,0,119,35.5,119,106.4V537.2z M1450.5,228.1c0-22.8-12-34.3-36-34.5c-24.2,0-36.3,11.5-36.3,34.5v309.1
		c0,22.8,12,34.2,36,34.2c24.2,0,36.3-11.4,36.3-34.2V228.1z"/>
	<path d="M1824.2,537.2c0,70.8-39.7,106.2-119,106.2c-79.2,0-118.7-35.4-118.7-106.2V129.9h82.8v407.4c0,22.8,12,34.2,36,34.2
		c24.2,0,36.3-11.4,36.3-34.2V129.9h82.8V537.2z"/>
	<path d="M2107.2,61.7v81.6h-77.5v492.2H1947V143.3h-77.5V61.7H2107.2z"/>
	<path d="M2229.8,129.9l56.4,196.8l56.4-196.8h87.7l-100.3,286.9l-2.3,6.1v212.6H2245V422.9l-2.6-6.1L2142,129.9H2229.8z"/>
	<path d="M2475.5,129.9h115.2c2.3,0.2,4.1,0.3,5.3,0.3c73.5,0,110.2,35.3,110.2,105.9v76.3c0,52.2-26.4,85.9-79.2,100.9
		c-12.7,3.5-31.1,5.3-55.3,5.3h-13.5v217h-82.8V129.9z M2558.3,201.8v144.8h19c11.5,0,19.4-0.8,23.7-2.3c15-5.3,22.5-15.9,22.5-31.9
		V236c0-22.8-12-34.2-36-34.2H2558.3z"/>
	<path d="M2757.6,129.9h82.8v505.6h-82.8V129.9z"/>
	<path d="M2898,129.9h82.8l78.4,293.3V131l76.6-1.2v505.6H3053l-75.4-284.2v284.2H2898V129.9z"/>
	<path d="M3428.3,537.2c0,70.8-39.7,106.2-119,106.2c-79.2,0-118.7-35.4-118.7-106.2V228.1c0-71,39.6-106.4,118.7-106.4
		c79.3,0,119,35.5,119,106.4V296h-82.8v-67.8c0-22.8-12-34.3-36-34.5c-24.2,0-36.3,11.5-36.3,34.5v309.1c0,22.8,12,34.2,36,34.2
		c24.2,0,36.3-11.4,36.3-34.2V418.5h-41.8v-71.9h124.6V537.2z"/>
</g>
<g>
	<path d="M630,239.7c11,0,20-9,20-20v-138c0-11-9-20-20-20H492c-11,0-20,9-20,20v138c0,11,9,20,20,20h8.8c11,0,24.5,0,30,0
		c5.5,0,19,0,30,0H630z"/>
	<path d="M621,477.7c0-11-9-20-20-20h-40.2c-11,0-24.5,0-30,0c-5.5,0-19,0-30,0H463c-11,0-20,9-20,20v138c0,11,9,20,20,20h138
		c11,0,20-9,20-20V477.7z"/>
	<path d="M699,437.7c11,0,20-9,20-20v-138c0-11-9-20-20-20h-29c-11,0-29,0-40,0h-69c-11,0-20,9-20,20v138c0,11,9,20,20,20h39.8
		c11,0,24.5,0,30,0c5.5,0,19,0,30,0H699z"/>
	<path d="M452,81.7c0-11-9-20-20-20H294c-11,0-20,9-20,20v138c0,11,9,20,20,20h8.8c11,0,24.5,0,30,0c5.5,0,19,0,30,0H432
		c11,0,20-9,20-20V81.7z"/>
	<path d="M432.8,437.7c5.5,0,19,0,30,0H501c11,0,20-9,20-20v-138c0-11-9-20-20-20h-9.2c-11,0-24.5,0-30,0c-5.5,0-19,0-30,0H363
		c-11,0-20,9-20,20v138c0,11,9,20,20,20h39.8C413.8,437.7,427.3,437.7,432.8,437.7z"/>
	<path d="M234,239.7c11,0,20-9,20-20v-138c0-11-9-20-20-20H96c-11,0-20,9-20,20v138c0,11,9,20,20,20h8.8c11,0,29,0,40,0H234z"/>
	<path d="M423,477.7c0-11-9-20-20-20h-40.2c-11,0-24.5,0-30,0c-5.5,0-19,0-30,0H265c-11,0-20,9-20,20v138c0,11,9,20,20,20h138
		c11,0,20-9,20-20V477.7z"/>
	<path d="M949,477.7c0-11-9-20-20-20H739c-11,0-29,0-40,0h-38c-11,0-20,9-20,20v138c0,11,9,20,20,20h268c11,0,20-9,20-20V477.7z"/>
	<path d="M303,437.7c11,0,20-9,20-20v-138c0-11-9-20-20-20h-9.2c-11,0-24.5,0-30,0c-5.5,0-19,0-30,0H165c-11,0-20,9-20,20v138
		c0,11,9,20,20,20h39.8c11,0,29,0,40,0H303z"/>
	<path d="M949,81.7c0-11-9-20-20-20H690c-11,0-20,9-20,20v138c0,11,9,20,20,20h29c11,0,20,9,20,20v158c0,11,9,20,20,20h170
		c11,0,20-9,20-20V81.7z"/>
</g>
</svg>
