<?xml version="1.0" encoding="utf-8"?>
<!-- Generator: Adobe Illustrator 18.0.0, SVG Export Plug-In . SVG Version: 6.00 Build 0)  -->
<!DOCTYPE svg PUBLIC "-//W3C//DTD SVG 1.1//EN" "http://www.w3.org/Graphics/SVG/1.1/DTD/svg11.dtd">
<svg version="1.1" id="レイヤー_1" xmlns="http://www.w3.org/2000/svg" xmlns:xlink="http://www.w3.org/1999/xlink" x="0px"
	 y="0px" viewBox="0 0 200 200" enable-background="new 0 0 200 200" xml:space="preserve">
<path fill="#CCC324" d="M197.4,83.7c-0.3-0.6-0.7-1.1-1.1-1.6c-0.6-0.6-1.3-1.1-2-1.4c-0.7-0.3-1.3-0.4-1.9-0.5l-54.9-8l0,0
	c-0.1,0-0.3-0.2-0.5-0.3l-0.1-0.1l-24.5-49.7l0,0c-0.4-0.8-1-1.7-1.9-2.4c-0.5-0.4-1-0.7-1.7-1c-0.6-0.3-1.4-0.4-2.1-0.4
	c-0.7,0-1.5,0.1-2.1,0.4c-1,0.4-1.7,1-2.3,1.6c-0.6,0.6-1,1.2-1.3,1.8L76.4,71.8c0,0.1-0.2,0.2-0.4,0.4c-0.1,0.1-0.2,0.1-0.2,0.1
	l-54.9,8c-0.6,0.1-1.1,0.2-1.7,0.4c-0.9,0.3-1.8,0.9-2.6,1.9c-0.4,0.5-0.7,1.1-1,1.7c-0.2,0.6-0.3,1.3-0.3,1.9
	c0,1.1,0.3,2.1,0.7,2.9c0.4,0.8,0.9,1.4,1.4,1.9l39.7,38.7c0,0.1,0.1,0.2,0.2,0.4c0.1,0.2,0.1,0.3,0.1,0.4L48,185.2
	c-0.1,0.4-0.1,0.9-0.1,1.3c0,0.6,0.1,1.3,0.3,2c0.2,0.5,0.4,1.1,0.8,1.6c0.5,0.8,1.3,1.5,2.2,2c0.9,0.5,1.9,0.6,2.7,0.6
	c1.4,0,2.4-0.4,3.3-0.9l49.1-25.8h0c0.1,0,0.2,0,0.4,0c0.1,0,0.3,0,0.4,0l0,0l49.1,25.8c0.9,0.5,2,0.9,3.3,0.9
	c0.7,0,1.6-0.1,2.4-0.5c0.6-0.3,1.2-0.6,1.7-1.1c0.7-0.7,1.2-1.5,1.5-2.3c0.3-0.8,0.4-1.6,0.4-2.3c0-0.5,0-0.9-0.1-1.3l-9.4-54.7
	c0-0.1,0-0.3,0.1-0.5c0-0.1,0.1-0.2,0.1-0.2L195.9,91c0.5-0.5,1-1.1,1.4-1.9c0.4-0.8,0.7-1.7,0.7-2.9
	C198,85.4,197.8,84.5,197.4,83.7z M108.8,25.9L108.8,25.9l0.9,0.5L108.8,25.9z"/>
<g>
	<linearGradient id="SVGID_1_" gradientUnits="userSpaceOnUse" x1="63.0466" y1="35.7026" x2="146.6972" y2="180.5898">
		<stop  offset="0" style="stop-color:#F8FF24"/>
		<stop  offset="3.664758e-002" style="stop-color:#F8FE2A"/>
		<stop  offset="8.701683e-002" style="stop-color:#F6FC3C"/>
		<stop  offset="0.1453" style="stop-color:#F4F859"/>
		<stop  offset="0.2096" style="stop-color:#F1F381"/>
		<stop  offset="0.2781" style="stop-color:#EDEDB5"/>
		<stop  offset="0.2857" style="stop-color:#EDECBB"/>
		<stop  offset="0.3364" style="stop-color:#EDEAAF"/>
		<stop  offset="0.428" style="stop-color:#ECE38F"/>
		<stop  offset="0.5491" style="stop-color:#ECD85C"/>
		<stop  offset="0.6256" style="stop-color:#EBD138"/>
		<stop  offset="0.7428" style="stop-color:#EFDB3B"/>
		<stop  offset="0.9414" style="stop-color:#FBF642"/>
		<stop  offset="1" style="stop-color:#FFFF44"/>
	</linearGradient>
	<path fill="url(#SVGID_1_)" d="M96.8,12.5c0.7-1.5,1.9-1.5,2.7,0L124,62.2c0.7,1.5,2.7,2.9,4.3,3.1l54.8,8c1.6,0.2,2,1.4,0.8,2.5
		l-39.7,38.7c-1.2,1.2-1.9,3.4-1.6,5.1l9.4,54.6c0.3,1.6-0.7,2.3-2.1,1.6l-49-25.8c-1.5-0.8-3.9-0.8-5.3,0l-49,25.8
		c-1.5,0.8-2.4,0.1-2.1-1.6l9.4-54.6c0.3-1.6-0.5-3.9-1.6-5.1L12.4,75.8c-1.2-1.2-0.8-2.3,0.8-2.5l54.8-8c1.6-0.2,3.6-1.6,4.3-3.1
		L96.8,12.5z"/>
	<path fill="none" stroke="#CCC324" stroke-width="10" stroke-miterlimit="10" d="M96.8,12.5c0.7-1.5,1.9-1.5,2.7,0L124,62.2
		c0.7,1.5,2.7,2.9,4.3,3.1l54.8,8c1.6,0.2,2,1.4,0.8,2.5l-39.7,38.7c-1.2,1.2-1.9,3.4-1.6,5.1l9.4,54.6c0.3,1.6-0.7,2.3-2.1,1.6
		l-49-25.8c-1.5-0.8-3.9-0.8-5.3,0l-49,25.8c-1.5,0.8-2.4,0.1-2.1-1.6l9.4-54.6c0.3-1.6-0.5-3.9-1.6-5.1L12.4,75.8
		c-1.2-1.2-0.8-2.3,0.8-2.5l54.8-8c1.6-0.2,3.6-1.6,4.3-3.1L96.8,12.5z"/>
</g>
</svg>
